# xmcd
#
# Track frame offsets: 
#        182
#        13442
#        33045
#        48980
#        67907
#        77200
#        94040
#        111317
#        122160
#        133555
#        144052
#        163384
#
# Disc length: 2325 seconds
#
# Revision: 0
# Processed by: cddbd v1.5.2PL0 Copyright (c) Steve Scherf et al.
# Submitted via: ExactAudioCopy v0.99pb3
#
DISCID=9e09130c
DTITLE=maria marta serra lima y estela raval - 12 grandes exitos
DYEAR=1900
DGENRE=Ballad
TTITLE0=contigo aprendi
TTITLE1=si me lo propongo
TTITLE2=se me olvido otra vez
TTITLE3=para mi es algo mas
TTITLE4=soy lo prohibido
TTITLE5=sabor a nada
TTITLE6=lo sabia
TTITLE7=toda una vida
TTITLE8=sabras que te quiero
TTITLE9=mi ultimo fracaso
TTITLE10=a mi modo
TTITLE11=tu me acostumbraste
EXTD=
EXTT0=
EXTT1=
EXTT2=
EXTT3=
EXTT4=
EXTT5=
EXTT6=
EXTT7=
EXTT8=
EXTT9=
EXTT10=
EXTT11=
PLAYORDER=
